# xmcd
#
# Track frame offsets:
#	182
#	11340
#	29475
#	44532
#	58732
#	81060
#	98327
#	110512
#	127457
#	143500
#	159592
#	174930
#	187077
#	208885
#
# Disc length: 2994 seconds
#
# Revision: 1
# Processed by: cddbd v1.5.2PL0 Copyright (c) Steve Scherf et al.
# Submitted via: EasyCDDAExtractor 12.0.0.1
#
DISCID=bf0bb00e
DTITLE=Various Artist - From West Helena To Chicago
DYEAR=1998
DGENRE=Blues
TTITLE0=Honeyboy Edwards - West Helena Blues
TTITLE1=Honeyboy Edwards - Drop Down Mama
TTITLE2=Honeyboy Edwards - Build Myself A Cave
TTITLE3=Honeyboy Edwards - Little Boy Blue
TTITLE4=Honeyboy Edwards - Sweet Home Chicago
TTITLE5=Magic Slim - Bring Your Fine-Self Home
TTITLE6=John Primer - Mojo Hand
TTITLE7=Eddie C. Campbell - My Sister Taught Me
TTITLE8=Eddie C. Campbell - Rock Me
TTITLE9=Eddie C. Campbell - Just Walking
TTITLE10=Eddie C. Campbell - Last Affair
TTITLE11=Eddie C. Campbell - Jump, Jump, Jump
TTITLE12=Johnny B. Moore - Straighten Up Woman
TTITLE13=Johnny B. Moore - Memphis Bound
EXTD=
EXTT0=
EXTT1=
EXTT2=
EXTT3=
EXTT4=
EXTT5=
EXTT6=
EXTT7=
EXTT8=
EXTT9=
EXTT10=
EXTT11=
EXTT12=
EXTT13=
PLAYORDER=
